<?xml version="1.0" standalone="no"?>
<!DOCTYPE svg PUBLIC "-//W3C//DTD SVG 20010904//EN" "http://www.w3.org/TR/2001/REC-SVG-20010904/DTD/svg10.dtd">
<svg version="1.0" xmlns="http://www.w3.org/2000/svg"
    width="188.000000pt" height="188.000000pt" viewBox="0 0 188.000000 188.000000"
    preserveAspectRatio="xMidYMid meet">
    <metadata> Created by potrace 1.10, written by Peter Selinger 2001-2011 </metadata>
    <g transform="translate(0.000000,188.000000) scale(0.100000,-0.100000)"
        fill="#000000" stroke="none">
        <path
            d="M868 1829 c-21 -22 -41 -54 -45 -70 -8 -39 -18 -44 -36 -15 -9 13
-37 41 -61 61 -37 30 -51 36 -72 31 -26 -7 -26 -7 17 -36 24 -16 57 -42 72
-58 l29 -30 -59 -26 c-32 -15 -68 -37 -80 -48 l-22 -21 -10 24 c-5 13 -18 45
-30 72 -25 59 -19 77 25 77 32 0 45 12 25 24 -12 8 -121 -34 -121 -45 0 -5 13
-30 30 -57 l29 -47 -43 -6 c-61 -10 -131 -48 -211 -118 -38 -34 -88 -67 -110
-74 -89 -30 -93 -112 -8 -187 50 -43 94 -60 162 -60 40 0 43 -2 37 -22 -3 -13
-6 -51 -6 -85 0 -61 -1 -62 -35 -79 -49 -23 -78 -67 -83 -128 -3 -41 0 -56 18
-79 25 -31 222 -165 257 -173 36 -9 28 -35 -32 -109 -31 -37 -60 -76 -66 -86
-10 -19 -11 -18 -42 5 -63 48 -138 42 -178 -14 -40 -58 -35 -75 38 -152 37
-39 96 -90 129 -114 l62 -44 68 10 c110 15 173 12 234 -12 48 -19 74 -22 200
-23 125 0 154 3 212 22 37 13 87 23 111 23 69 0 137 -12 131 -22 -13 -21 65
27 130 81 73 59 176 178 176 203 0 24 -49 67 -85 74 -36 6 -125 -26 -125 -45
0 -20 -16 -11 -33 18 -9 15 -36 50 -60 77 -65 73 -67 88 -15 115 98 49 236
150 253 184 29 63 -6 153 -74 187 -32 16 -33 18 -36 85 -1 37 -6 76 -10 86 -6
15 -1 17 46 17 67 0 122 25 173 78 37 39 38 41 26 76 -13 40 -43 73 -144 156
-107 88 -168 122 -221 124 -24 0 -45 6 -45 11 0 6 12 28 26 48 14 21 24 40 22
42 -12 12 -122 54 -129 49 -20 -12 -7 -24 26 -24 25 0 35 -4 35 -16 0 -9 5
-12 12 -8 7 5 9 2 5 -7 -3 -8 -16 -39 -28 -69 -13 -30 -25 -57 -26 -59 -2 -3
-13 5 -26 16 -28 27 -93 63 -112 63 -8 0 -15 5 -15 10 0 11 72 80 102 96 22
12 14 24 -18 24 -13 0 -41 -19 -68 -45 -46 -44 -46 -45 -66 -25 -11 11 -31 20
-45 20 -22 0 -25 4 -25 35 0 41 -20 55 -81 55 -36 0 -47 -6 -81 -41z m122 -4
c16 -20 6 -56 -26 -95 -37 -43 -22 -50 27 -11 48 39 85 37 95 -6 6 -21 2 -31
-20 -50 -15 -13 -34 -23 -42 -23 -8 0 -14 -5 -14 -11 0 -7 9 -9 23 -5 12 3 28
6 35 6 7 0 23 11 36 24 l22 25 52 -24 c169 -78 319 -347 322 -577 0 -19 -5
-28 -15 -28 -51 0 -101 -71 -91 -131 6 -38 6 -39 -45 -64 -107 -55 -186 -68
-394 -68 -209 0 -302 16 -392 68 -41 25 -43 28 -43 74 0 57 -26 96 -77 117
l-33 14 6 73 c8 87 40 184 94 285 76 140 151 212 257 248 61 21 66 24 88 73
41 88 101 127 135 86z m-414 -219 c3 -8 -12 -37 -32 -65 -29 -38 -45 -51 -64
-51 -27 0 -62 -23 -118 -77 -18 -18 -49 -38 -68 -45 -67 -24 -27 -77 66 -86
36 -3 47 -8 43 -18 -12 -33 -144 -3 -196 44 -28 25 -49 71 -42 92 4 12 21 24
43 30 21 5 69 37 112 75 41 36 97 76 124 90 56 28 123 33 132 11z m889 -10
c28 -13 88 -56 135 -95 46 -39 92 -71 102 -71 10 0 25 -11 33 -24 15 -22 15
-27 1 -54 -32 -63 -105 -102 -188 -102 -27 0 -38 4 -38 15 0 10 10 15 33 15
43 1 117 35 117 55 0 9 -18 24 -42 34 -24 10 -59 35 -78 56 -39 41 -79 65
-108 65 -24 0 -106 96 -98 115 8 23 74 18 131 -9z m-1012 -211 c-36 -72 -39
-75 -73 -75 -41 0 -80 9 -80 19 0 4 15 13 34 19 19 7 47 27 63 45 30 34 72 67
85 67 4 0 -9 -34 -29 -75z m1047 26 c28 -27 64 -54 81 -61 16 -7 29 -16 29
-20 0 -10 -37 -20 -77 -20 -30 0 -35 5 -68 70 -19 38 -35 72 -35 75 0 15 24 0
70 -44z m-1033 -417 c22 -22 25 -32 20 -77 -4 -43 -10 -56 -42 -85 -31 -29
-42 -33 -68 -28 -18 4 -45 19 -60 35 -26 25 -28 32 -22 74 14 93 113 140 172
81z m1111 -2 c33 -31 49 -84 38 -127 -7 -27 -59 -65 -89 -65 -51 0 -107 74
-107 140 0 74 99 107 158 52z m-873 -226 c234 -47 541 -19 669 61 30 19 41 22
44 13 8 -23 54 -60 73 -60 11 0 19 -4 19 -9 0 -13 -162 -101 -172 -95 -15 9
-8 23 15 29 25 8 77 54 77 68 0 5 -18 -7 -40 -27 -22 -20 -49 -36 -60 -36 -11
0 -20 -1 -20 -2 0 -2 7 -38 15 -81 8 -43 15 -103 15 -133 0 -73 41 -154 78
-154 9 0 4 12 -17 35 -36 41 -54 99 -43 140 l8 29 52 -64 c38 -47 50 -71 46
-85 -3 -11 -8 -63 -11 -115 -2 -52 -5 -96 -6 -97 -1 0 -42 1 -90 4 l-88 6 25
26 c27 29 60 104 54 123 -2 6 -15 -9 -27 -35 -60 -124 -233 -184 -452 -157
-149 18 -222 58 -265 146 -15 30 -29 52 -32 50 -11 -11 10 -76 37 -113 l29
-40 -86 -6 c-48 -3 -88 -4 -89 -4 0 1 -3 56 -4 122 l-4 120 44 58 c45 59 60
69 60 40 0 -10 4 -47 8 -82 7 -57 11 -64 31 -68 23 -3 24 -1 20 52 -1 30 0 55
4 55 4 0 15 -13 25 -30 9 -16 20 -30 23 -30 3 0 15 15 25 33 l20 32 3 -58 c3
-54 5 -58 25 -55 20 3 22 9 25 91 3 86 3 87 -21 87 -16 0 -34 -12 -52 -36
l-27 -35 -24 35 c-28 41 -60 48 -67 14 -3 -13 -3 -5 -1 17 4 43 19 120 29 146
5 12 -1 18 -24 22 -16 3 -45 20 -65 38 -20 17 -36 27 -36 21 0 -13 54 -59 80
-67 18 -6 29 -35 13 -35 -11 0 -173 94 -173 101 0 4 13 9 29 12 17 4 39 19 51
35 l21 28 67 -33 c37 -18 99 -39 137 -47z m-322 -331 c14 -9 32 -34 41 -56 19
-47 21 -130 4 -147 -10 -10 -10 -15 2 -22 8 -5 12 -10 7 -10 -16 0 -55 28
-129 94 -61 53 -78 74 -78 95 0 27 30 64 60 73 20 6 61 -6 93 -27z m1287 -5
c11 -21 13 -37 4 -27 -4 3 -23 -15 -44 -41 -21 -26 -58 -67 -83 -91 -39 -38
-48 -42 -62 -31 -30 25 -10 136 33 183 46 48 128 52 152 7z" />
        <path
            d="M675 1433 l-30 -17 47 -6 c26 -3 56 -14 67 -24 26 -23 56 -15 42 12
-25 46 -80 61 -126 35z" />
        <path
            d="M1143 1430 c-20 -12 -33 -28 -33 -40 0 -25 15 -25 47 0 16 12 41 20
64 20 47 0 51 14 8 29 -43 15 -49 14 -86 -9z" />
        <path
            d="M611 1169 c-18 -18 -31 -41 -31 -56 l0 -25 35 31 c49 43 101 43 144
1 34 -35 49 -24 26 19 -21 42 -53 61 -101 61 -34 0 -49 -6 -73 -31z" />
        <path
            d="M1157 1180 c-26 -21 -51 -76 -38 -84 4 -3 21 8 36 24 41 43 101 42
143 -1 18 -18 32 -26 36 -20 9 14 -19 66 -46 85 -32 23 -100 20 -131 -4z" />
        <path
            d="M870 1055 c0 -18 7 -26 24 -31 14 -3 30 -3 36 1 19 12 24 -27 5 -41
-28 -20 -61 -17 -85 9 l-22 22 4 -25 c2 -14 13 -29 26 -35 12 -5 22 -15 22
-22 0 -24 39 -53 73 -53 34 0 77 23 77 42 0 6 11 21 25 34 14 13 25 31 25 40
0 16 -1 16 -19 0 -27 -25 -85 -18 -89 10 -3 18 1 20 26 16 32 -4 58 18 48 43
-7 19 -33 19 -52 0 -9 -8 -26 -15 -38 -15 -13 0 -29 7 -36 15 -20 25 -50 19
-50 -10z m126 -116 c8 -14 -14 -29 -42 -29 -23 0 -48 23 -37 33 11 11 71 8 79
-4z" />
        <path
            d="M554 921 c24 -26 97 -57 185 -77 59 -13 109 -15 250 -12 160 4 183 7
256 32 70 24 133 62 121 73 -2 2 -19 -5 -37 -16 -171 -99 -534 -104 -721 -10
-67 34 -77 36 -54 10z" />
        <path
            d="M895 468 c-16 -46 -31 -86 -33 -90 -2 -5 8 -8 22 -8 18 0 29 7 35 22
11 31 60 32 72 1 6 -16 17 -23 34 -23 14 0 25 1 25 3 0 1 -16 40 -34 87 -31
77 -37 85 -63 88 -27 3 -29 -1 -58 -80z m75 -5 c0 -7 -7 -13 -15 -13 -15 0
-21 31 -8 43 8 8 23 -12 23 -30z" />
        <path
            d="M1140 460 c0 -89 0 -90 25 -90 22 0 25 4 25 35 0 33 2 35 35 35 36 0
36 0 29 -35 -6 -33 -5 -35 20 -35 l26 0 0 90 c0 89 0 90 -25 90 -22 0 -25 -4
-23 -31 3 -28 0 -31 -29 -34 -31 -3 -33 -1 -33 31 0 30 -3 34 -25 34 -25 0
-25 -1 -25 -90z" />
        <path d="M522 385 c-31 -44 -31 -62 1 -27 14 15 41 72 34 72 -2 0 -17 -20 -35
-45z" />
        <path
            d="M648 393 c22 -40 92 -90 157 -112 73 -24 191 -28 273 -10 61 13 155
67 160 93 3 16 -1 15 -31 -8 -129 -98 -400 -95 -508 5 -14 13 -34 31 -44 39
-17 14 -18 14 -7 -7z" />
        <path
            d="M296 431 c-5 -7 2 -11 18 -11 13 0 33 -3 43 -6 12 -5 15 -4 8 4 -15
16 -62 25 -69 13z" />
        <path
            d="M1565 424 c-16 -8 -22 -12 -12 -9 10 3 37 5 60 6 33 0 38 2 22 9 -28
12 -36 11 -70 -6z" />
        <path
            d="M505 112 c77 -46 83 -47 440 -47 l340 0 53 28 c30 16 51 31 48 34 -3
3 -34 -5 -68 -18 -62 -24 -69 -24 -383 -23 -303 0 -323 2 -379 22 -72 27 -91
28 -51 4z" />
    </g>
</svg>